<?xml version="1.0" encoding="utf-8"?>
<!-- Generator: Adobe Illustrator 27.5.0, SVG Export Plug-In . SVG Version: 6.00 Build 0)  -->
<svg version="1.1" id="Ebene_1" xmlns="http://www.w3.org/2000/svg" xmlns:xlink="http://www.w3.org/1999/xlink" x="0px" y="0px"
	 viewBox="0 0 32 32" style="enable-background:new 0 0 32 32;" xml:space="preserve">
<path d="M18.1,16L30.8,3.3c0.6-0.6,0.6-1.5,0-2.1s-1.5-0.6-2.1,0L16,13.9L3.3,1.2c-0.6-0.6-1.5-0.6-2.1,0c-0.6,0.6-0.6,1.5,0,2.1
	L13.9,16L1.2,28.7c-0.6,0.6-0.6,1.5,0,2.1c0.6,0.6,1.5,0.6,2.1,0L16,18.1l12.7,12.7c0.6,0.6,1.5,0.6,2.1,0c0.6-0.6,0.6-1.5,0-2.1
	L18.1,16z"/>
</svg>
