<svg width="565" height="3" viewBox="0 0 565 3" fill="none" xmlns="http://www.w3.org/2000/svg">
<circle cx="9.5" cy="1.5" r="1.5" fill="#D9D9D9"/>
<circle cx="24.2568" cy="1.5" r="1.5" fill="#D9D9D9"/>
<circle cx="39.0134" cy="1.5" r="1.5" fill="#D9D9D9"/>
<circle cx="53.7703" cy="1.5" r="1.5" fill="#D9D9D9"/>
<circle cx="68.5271" cy="1.5" r="1.5" fill="#D9D9D9"/>
<circle cx="83.2837" cy="1.5" r="1.5" fill="#D9D9D9"/>
<circle cx="98.0405" cy="1.5" r="1.5" fill="#D9D9D9"/>
<circle cx="112.797" cy="1.5" r="1.5" fill="#D9D9D9"/>
<circle cx="127.554" cy="1.5" r="1.5" fill="#D9D9D9"/>
<circle cx="142.311" cy="1.5" r="1.5" fill="#D9D9D9"/>
<circle cx="157.068" cy="1.5" r="1.5" fill="#D9D9D9"/>
<circle cx="171.824" cy="1.5" r="1.5" fill="#D9D9D9"/>
<circle cx="186.581" cy="1.5" r="1.5" fill="#D9D9D9"/>
<circle cx="201.338" cy="1.5" r="1.5" fill="#D9D9D9"/>
<circle cx="216.095" cy="1.5" r="1.5" fill="#D9D9D9"/>
<circle cx="230.852" cy="1.5" r="1.5" fill="#D9D9D9"/>
<circle cx="245.608" cy="1.5" r="1.5" fill="#D9D9D9"/>
<circle cx="260.365" cy="1.5" r="1.5" fill="#D9D9D9"/>
<circle cx="275.122" cy="1.5" r="1.5" fill="#D9D9D9"/>
<circle cx="289.878" cy="1.5" r="1.5" fill="#D9D9D9"/>
<circle cx="304.635" cy="1.5" r="1.5" fill="#D9D9D9"/>
<circle cx="319.392" cy="1.5" r="1.5" fill="#D9D9D9"/>
<circle cx="334.148" cy="1.5" r="1.5" fill="#D9D9D9"/>
<circle cx="348.905" cy="1.5" r="1.5" fill="#D9D9D9"/>
<circle cx="363.662" cy="1.5" r="1.5" fill="#D9D9D9"/>
<circle cx="378.419" cy="1.5" r="1.5" fill="#D9D9D9"/>
<circle cx="393.176" cy="1.5" r="1.5" fill="#D9D9D9"/>
<circle cx="407.932" cy="1.5" r="1.5" fill="#D9D9D9"/>
<circle cx="422.689" cy="1.5" r="1.5" fill="#D9D9D9"/>
<circle cx="437.446" cy="1.5" r="1.5" fill="#D9D9D9"/>
<circle cx="452.203" cy="1.5" r="1.5" fill="#D9D9D9"/>
<circle cx="466.959" cy="1.5" r="1.5" fill="#D9D9D9"/>
<circle cx="481.716" cy="1.5" r="1.5" fill="#D9D9D9"/>
<circle cx="496.473" cy="1.5" r="1.5" fill="#D9D9D9"/>
<circle cx="511.229" cy="1.5" r="1.5" fill="#D9D9D9"/>
<circle cx="525.986" cy="1.5" r="1.5" fill="#D9D9D9"/>
<circle cx="540.743" cy="1.5" r="1.5" fill="#D9D9D9"/>
<circle cx="555.5" cy="1.5" r="1.5" fill="#D9D9D9"/>
</svg>
