<svg width="102" height="32" viewBox="0 0 102 32" fill="none" xmlns="http://www.w3.org/2000/svg">
<path d="M10.4319 10.552C11.9893 10.552 13.4079 10.9307 14.6879 11.688C15.9679 12.4453 16.9866 13.464 17.7439 14.744C18.5013 16.0133 18.8799 17.4213 18.8799 18.968C18.8799 20.1307 18.6613 21.224 18.2239 22.248C17.7866 23.272 17.1786 24.1733 16.3999 24.952C15.6319 25.72 14.7359 26.3227 13.7119 26.76C12.6986 27.1973 11.6053 27.416 10.4319 27.416C9.42926 27.416 8.53859 27.192 7.75992 26.744C6.99192 26.2853 6.34659 25.6933 5.82392 24.968V27H1.91992V3H5.82392V13C6.34659 12.2747 6.99192 11.688 7.75992 11.24C8.53859 10.7813 9.42926 10.552 10.4319 10.552ZM10.3839 23.64C11.2159 23.64 11.9679 23.432 12.6399 23.016C13.3226 22.5893 13.8666 22.024 14.2719 21.32C14.6773 20.616 14.8799 19.832 14.8799 18.968C14.8799 18.1147 14.6773 17.336 14.2719 16.632C13.8666 15.9173 13.3226 15.352 12.6399 14.936C11.9573 14.52 11.2053 14.312 10.3839 14.312C9.57326 14.312 8.84792 14.5253 8.20792 14.952C7.56792 15.368 7.06659 15.9333 6.70392 16.648C6.34126 17.352 6.15992 18.1253 6.15992 18.968C6.15992 19.832 6.34126 20.6213 6.70392 21.336C7.06659 22.04 7.56792 22.6 8.20792 23.016C8.84792 23.432 9.57326 23.64 10.3839 23.64Z" fill="#4338CA"/>
<path d="M20.4049 21.08V11H24.3089V20.056C24.3089 20.6853 24.4636 21.2613 24.7729 21.784C25.0823 22.296 25.4929 22.7067 26.0049 23.016C26.5276 23.3147 27.0983 23.464 27.7169 23.464C28.3569 23.464 28.9329 23.3147 29.4449 23.016C29.9569 22.7067 30.3676 22.296 30.6769 21.784C30.9863 21.2613 31.1409 20.6853 31.1409 20.056V11H35.0449L35.0609 27H31.1569L31.1409 25.544C30.5863 26.12 29.9303 26.5787 29.1729 26.92C28.4156 27.2507 27.6049 27.416 26.7409 27.416C25.5783 27.416 24.5169 27.1333 23.5569 26.568C22.5969 25.992 21.8289 25.2293 21.2529 24.28C20.6876 23.32 20.4049 22.2533 20.4049 21.08Z" fill="#4338CA"/>
<path d="M42.9837 27.288C42.1517 27.2347 41.3463 27.0693 40.5677 26.792C39.7997 26.504 39.117 26.1147 38.5197 25.624C37.9223 25.1333 37.4637 24.5467 37.1437 23.864L40.4397 22.456C40.5677 22.6693 40.7757 22.8987 41.0637 23.144C41.3517 23.3787 41.693 23.576 42.0877 23.736C42.493 23.896 42.9357 23.976 43.4157 23.976C43.821 23.976 44.205 23.9227 44.5677 23.816C44.941 23.6987 45.2397 23.5227 45.4637 23.288C45.6983 23.0533 45.8157 22.7493 45.8157 22.376C45.8157 21.9813 45.677 21.6773 45.3997 21.464C45.133 21.24 44.7917 21.0747 44.3757 20.968C43.9703 20.8507 43.5757 20.744 43.1917 20.648C42.1783 20.4453 41.2343 20.1307 40.3597 19.704C39.4957 19.2773 38.797 18.728 38.2637 18.056C37.741 17.3733 37.4797 16.552 37.4797 15.592C37.4797 14.536 37.757 13.624 38.3117 12.856C38.877 12.088 39.6077 11.496 40.5037 11.08C41.4103 10.664 42.3863 10.456 43.4317 10.456C44.701 10.456 45.8637 10.7227 46.9197 11.256C47.9863 11.7787 48.829 12.52 49.4477 13.48L46.3597 15.304C46.2103 15.048 46.0023 14.8133 45.7357 14.6C45.469 14.376 45.165 14.1947 44.8237 14.056C44.4823 13.9067 44.125 13.8213 43.7517 13.8C43.2717 13.7787 42.8343 13.8213 42.4397 13.928C42.045 14.0347 41.725 14.216 41.4797 14.472C41.245 14.728 41.1277 15.0693 41.1277 15.496C41.1277 15.9013 41.2877 16.2053 41.6077 16.408C41.9277 16.6 42.3117 16.7493 42.7597 16.856C43.2183 16.9627 43.6557 17.08 44.0717 17.208C45.0103 17.5173 45.8903 17.896 46.7117 18.344C47.5437 18.792 48.2103 19.3413 48.7117 19.992C49.213 20.6427 49.453 21.4213 49.4317 22.328C49.4317 23.3627 49.1223 24.2693 48.5037 25.048C47.885 25.816 47.085 26.4027 46.1037 26.808C45.133 27.2133 44.093 27.3733 42.9837 27.288Z" fill="#4338CA"/>
<path d="M61.8399 22.184L65.3599 24.088C64.6239 25.0907 63.7013 25.896 62.5919 26.504C61.4826 27.112 60.2719 27.416 58.9599 27.416C57.4879 27.416 56.1439 27.0373 54.9279 26.28C53.7226 25.5227 52.7573 24.5093 52.0319 23.24C51.3173 21.96 50.9599 20.5467 50.9599 19C50.9599 17.8267 51.1679 16.7333 51.5839 15.72C51.9999 14.696 52.5706 13.8 53.2959 13.032C54.0319 12.2533 54.8853 11.6453 55.8559 11.208C56.8266 10.7707 57.8613 10.552 58.9599 10.552C60.2719 10.552 61.4826 10.856 62.5919 11.464C63.7013 12.072 64.6239 12.888 65.3599 13.912L61.8399 15.8C61.4666 15.3733 61.0239 15.0427 60.5119 14.808C60.0106 14.5733 59.4933 14.456 58.9599 14.456C58.1919 14.456 57.4986 14.6693 56.8799 15.096C56.2613 15.512 55.7706 16.0667 55.4079 16.76C55.0453 17.4427 54.8639 18.1893 54.8639 19C54.8639 19.8 55.0453 20.5467 55.4079 21.24C55.7706 21.9227 56.2613 22.472 56.8799 22.888C57.4986 23.304 58.1919 23.512 58.9599 23.512C59.5146 23.512 60.0426 23.3947 60.5439 23.16C61.0453 22.9147 61.4773 22.5893 61.8399 22.184Z" fill="#4338CA"/>
<circle cx="8.75232" cy="8.75232" r="8.75232" transform="matrix(-1 0 0 1 98.8784 10)" fill="#4338CA" fill-opacity="0.4"/>
<circle cx="8.75232" cy="8.75232" r="8.75232" transform="matrix(-1 0 0 1 93.7031 10)" fill="#4338CA" fill-opacity="0.6"/>
<circle cx="8.75232" cy="8.75232" r="8.75232" transform="matrix(-1 0 0 1 88.5278 10)" fill="#493ECB" fill-opacity="0.8"/>
<circle cx="8.75232" cy="8.75232" r="7.73396" transform="matrix(-1 0 0 1 83.5049 10)" fill="#4338CA" stroke="#4338CA" stroke-width="2.03671"/>
<circle cx="6.75232" cy="6.75232" r="5.96667" transform="matrix(-1 0 0 1 81.5046 12)" fill="white" stroke="#4338CA" stroke-width="1.5713"/>
</svg>
